<?xml version="1.0" encoding="UTF-8" standalone="no"?>
<svg width="17px" height="14px" viewBox="0 0 17 14" version="1.1" xmlns="http://www.w3.org/2000/svg" xmlns:xlink="http://www.w3.org/1999/xlink">
    <!-- Generator: Sketch 39 (31667) - http://www.bohemiancoding.com/sketch -->
    <title>ic_twitter</title>
    <desc>Created with Sketch.</desc>
    <defs></defs>
    <g id="Page-1" stroke="none" stroke-width="1" fill="none" fill-rule="evenodd">
        <g id="post-details" transform="translate(-274.000000, -1789.000000)" fill="#629D41">
            <g id="button" transform="translate(256.000000, 1776.000000)">
                <path d="M35,14.6354178 C34.3764188,14.9120472 33.7041204,15.1005619 32.9985671,15.1842286 C33.7168293,14.7521275 34.2705117,14.069662 34.5325259,13.2550244 C33.858533,13.6549297 33.1099814,13.9457506 32.3161016,14.1014341 C31.6804471,13.4240521 30.7723994,13 29.7694589,13 C27.8434319,13 26.2815136,14.5619183 26.2815136,16.4881571 C26.2815136,16.7620329 26.3122267,17.0278598 26.3715347,17.283096 C23.4739157,17.1375796 20.904397,15.7489254 19.1834062,13.6388318 C18.88263,14.1533286 18.7106368,14.7521275 18.7106368,15.3926538 C18.7106368,16.6019013 19.3257454,17.6694452 20.2632353,18.2955681 C19.6902777,18.276293 19.1533286,18.1197623 18.6822537,17.8588071 L18.6822537,17.9034999 C18.6822537,19.5927186 19.8847232,21.0014952 21.4798963,21.3236646 C21.1890754,21.4016123 20.8794029,21.4460933 20.5614697,21.4460933 C20.3373703,21.4460933 20.1177189,21.4240646 19.9063283,21.3836081 C20.3492319,22.7699323 21.637698,23.77838 23.1638196,23.8054922 C21.9704581,24.7398049 20.4655179,25.2979354 18.8317946,25.2979354 C18.5502934,25.2979354 18.273664,25.2814139 18,25.2502772 C19.5432786,26.2386025 21.3763192,26.8151609 23.3455563,26.8151609 C29.7616217,26.8151609 33.2709603,21.5020122 33.2709603,16.8927223 C33.2709603,16.7408515 33.2669358,16.5902516 33.2595223,16.4413461 C33.9415642,15.9497253 34.5348559,15.3350403 35,14.6354178" id="ic_twitter"></path>
            </g>
        </g>
    </g>
</svg>