<?xml version="1.0" encoding="UTF-8" standalone="no"?>
<svg width="16px" height="16px" viewBox="0 0 16 16" version="1.1" xmlns="http://www.w3.org/2000/svg" xmlns:xlink="http://www.w3.org/1999/xlink">
    <!-- Generator: Sketch 39 (31667) - http://www.bohemiancoding.com/sketch -->
    <title>icon</title>
    <desc>Created with Sketch.</desc>
    <defs></defs>
    <g id="Page-1" stroke="none" stroke-width="1" fill="none" fill-rule="evenodd">
        <g id="post-details" transform="translate(-631.000000, -1721.000000)" fill="#A7A7A7">
            <g id="icon" transform="translate(631.000000, 1721.000000)">
                <path d="M0.957142857,0 L16,0 L16,1 L1,1 L1,16 L0,16 L0,0 L0.957142857,0 Z M15.0428571,9 L5.57190012,9 L9.53471397,12.9628139 L8.82760719,13.6699206 L3.86479334,8.70710678 L4.04408266,8.52781746 L3.86479334,8.34852814 L8.71332148,3.5 L9.42042826,4.20710678 L5.62753504,8 L15,8 L15,1 L16,1 L16,9 L15.0428571,9 Z M1,15 L16,15 L16,16 L1,16 L1,15 Z" id="Combined-Shape"></path>
            </g>
        </g>
    </g>
</svg>