<svg width="17" height="14" viewBox="0 0 17 14" class="{{ include.class }}"><path d="M17 1.635a6.948 6.948 0 0 1-2.001.55 3.514 3.514 0 0 0 1.534-1.93c-.674.4-1.423.69-2.217.846a3.488 3.488 0 0 0-5.945 3.182A9.904 9.904 0 0 1 1.184.64a3.485 3.485 0 0 0 1.08 4.657 3.496 3.496 0 0 1-1.58-.437v.044a3.492 3.492 0 0 0 2.797 3.42 3.488 3.488 0 0 1-1.574.06 3.487 3.487 0 0 0 3.258 2.422 7.006 7.006 0 0 1-4.332 1.493c-.282 0-.558-.017-.832-.048a9.878 9.878 0 0 0 5.346 1.565c6.416 0 9.925-5.313 9.925-9.922 0-.152-.004-.303-.011-.452A7.034 7.034 0 0 0 17 1.635" fill="#629D41" fill-rule="evenodd"/></svg>